<?xml version="1.0" standalone="no"?>
<!DOCTYPE svg PUBLIC "-//W3C//DTD SVG 20010904//EN"
 "http://www.w3.org/TR/2001/REC-SVG-20010904/DTD/svg10.dtd">
<svg version="1.0" xmlns="http://www.w3.org/2000/svg"
 width="512.000000pt" height="512.000000pt" viewBox="0 0 512.000000 512.000000"
 preserveAspectRatio="xMidYMid meet">
<metadata>
Created by potrace 1.11, written by Peter Selinger 2001-2013
</metadata>
<g transform="translate(0.000000,512.000000) scale(0.100000,-0.100000)"
fill="#000000" stroke="none">
<path d="M1920 4465 c-58 -8 -127 -23 -155 -34 -27 -11 -69 -23 -93 -26 -23
-4 -64 -15 -90 -25 -168 -64 -179 -71 -258 -146 -53 -50 -104 -87 -155 -113
-143 -72 -196 -118 -247 -215 -23 -43 -27 -64 -27 -136 0 -82 1 -87 43 -160
47 -81 48 -86 13 -180 -31 -84 -29 -272 4 -426 25 -117 70 -261 86 -278 5 -6
9 -24 9 -42 0 -18 8 -47 18 -64 17 -31 17 -32 -5 -47 -18 -12 -20 -17 -9 -28
7 -7 14 -39 15 -70 l2 -58 -33 28 c-33 28 -45 23 -34 -18 3 -12 21 -30 40 -41
41 -22 81 -94 96 -175 5 -28 16 -75 24 -104 20 -77 38 -160 40 -188 0 -13 8
-30 17 -36 9 -7 20 -29 23 -50 8 -46 28 -110 68 -223 120 -335 301 -589 477
-668 153 -68 185 -75 371 -79 170 -5 179 -4 302 26 244 60 344 109 530 259 37
29 72 51 77 48 5 -4 21 5 36 20 29 29 46 28 120 -6 36 -16 110 -39 143 -44 7
-1 22 -10 34 -20 17 -15 22 -16 29 -5 5 8 9 17 9 20 0 8 -41 45 -46 41 -2 -1
-17 4 -32 12 -15 8 -54 22 -87 31 -33 10 -64 21 -70 24 -5 4 -29 13 -53 21
-49 15 -89 51 -94 83 -5 28 18 86 45 115 25 27 95 30 154 8 39 -15 157 -46
174 -46 6 0 7 4 4 10 -8 12 -107 60 -126 60 -8 0 -50 20 -94 43 -68 37 -82 48
-92 79 -10 31 -9 42 7 75 28 58 51 74 117 80 l58 5 2 52 c1 28 6 98 12 156 6
58 10 118 11 133 0 16 11 39 26 54 14 14 22 28 17 32 -4 3 -8 94 -9 201 0 141
-5 218 -17 279 -22 106 -22 152 -2 145 8 -3 25 3 39 13 22 18 23 20 7 30 -16
10 -19 37 -25 225 -7 221 -16 307 -43 418 -17 74 -61 166 -97 205 -13 14 -34
55 -47 91 -14 39 -39 82 -61 107 -21 23 -43 60 -49 82 -29 114 -78 176 -177
225 -26 13 -67 39 -92 58 -73 56 -215 114 -350 144 -124 27 -380 33 -530 13z
m802 -725 c101 -25 127 -39 190 -104 77 -79 128 -184 174 -356 8 -30 28 -82
43 -115 40 -84 78 -175 108 -259 25 -68 25 -76 21 -251 -4 -123 -10 -194 -21
-225 -8 -25 -20 -70 -27 -100 -7 -30 -18 -62 -24 -70 -7 -8 -18 -34 -26 -58
-16 -51 -95 -137 -145 -157 -19 -8 -56 -15 -82 -15 -53 0 -123 17 -123 29 0 4
-25 14 -55 21 -54 13 -173 9 -198 -7 -7 -4 -16 -8 -22 -9 -5 -1 -41 -11 -80
-22 -38 -11 -88 -23 -110 -27 -22 -3 -51 -9 -65 -12 l-25 -6 28 32 c17 20 27
44 27 64 0 31 0 31 -15 9 -42 -59 -160 -95 -241 -73 -48 13 -73 38 -84 83 -8
31 -8 31 -9 -14 -1 -39 4 -53 30 -83 17 -19 38 -35 47 -35 10 0 12 -3 7 -9 -6
-5 -66 -11 -135 -14 -87 -3 -139 -10 -170 -23 -45 -18 -150 -90 -150 -104 0
-14 -53 -30 -103 -30 -53 0 -108 24 -133 58 -34 47 -111 225 -106 245 1 4 -2
7 -6 7 -4 0 -8 9 -8 20 0 25 2 25 56 -6 25 -14 72 -30 104 -35 71 -10 213 7
234 27 7 8 20 14 29 14 24 0 137 84 152 114 8 14 18 26 21 26 4 0 23 37 41 83
33 80 34 86 32 212 0 72 -3 141 -5 155 -2 21 5 28 47 49 59 29 187 41 235 21
28 -11 30 -16 30 -62 0 -48 52 -227 69 -238 5 -3 15 -19 24 -36 49 -95 180
-180 302 -195 71 -9 207 3 229 20 6 5 28 14 48 20 50 16 158 123 188 185 29
61 39 217 21 331 -11 66 -10 78 5 104 16 27 15 60 -4 88 -4 7 -33 15 -62 17
-30 2 -84 8 -120 13 -96 12 -307 9 -370 -6 -30 -7 -74 -21 -97 -32 -24 -10
-46 -19 -49 -19 -9 0 -118 -82 -122 -91 -2 -4 -14 -19 -27 -35 -22 -25 -25
-26 -54 -14 -37 15 -185 17 -203 3 -7 -6 -43 -21 -79 -33 l-66 -24 -28 22
c-15 12 -33 22 -41 22 -7 0 -14 5 -16 11 -6 17 -122 39 -204 39 -79 0 -252
-27 -271 -42 -9 -7 -13 -7 -13 0 0 18 71 64 118 76 26 7 76 13 112 14 166 5
230 14 241 34 30 56 -20 73 -180 63 -125 -8 -228 -35 -272 -72 -39 -33 -65
-89 -49 -108 7 -9 7 -15 -2 -22 -19 -15 -108 -47 -113 -41 -3 2 -10 63 -16
134 -29 350 37 551 208 641 73 39 139 53 283 59 124 6 421 45 535 71 152 35
374 71 440 72 40 0 103 -8 147 -19z m-89 -717 c-7 -2 -19 -2 -25 0 -7 3 -2 5
12 5 14 0 19 -2 13 -5z m263 -45 c41 -18 73 -48 91 -83 9 -16 19 -32 23 -35
11 -7 35 -128 27 -136 -7 -7 -90 53 -141 101 -15 15 -56 41 -90 58 -53 27 -72
31 -146 31 -74 1 -93 -3 -142 -27 -93 -46 -178 -161 -178 -241 0 -52 16 -63
24 -16 13 85 75 171 155 218 41 24 56 27 136 27 75 0 98 -4 140 -24 56 -28
123 -92 137 -133 7 -19 16 -27 30 -25 14 1 27 -8 38 -28 10 -16 23 -29 30 -27
17 4 8 -82 -14 -128 -42 -88 -82 -128 -166 -169 -50 -24 -66 -26 -180 -26
-117 0 -128 2 -170 26 -131 77 -199 195 -227 391 -10 73 70 164 191 217 44 19
111 34 206 45 61 7 195 -2 226 -16z m-1226 -170 c19 -6 59 -24 87 -40 45 -25
54 -36 64 -71 6 -23 14 -46 17 -52 3 -5 -8 4 -24 20 -16 17 -28 33 -26 38 2 4
-6 7 -18 7 -11 0 -24 8 -28 18 -9 22 -25 25 -147 26 -92 1 -104 -1 -146 -27
-101 -60 -167 -155 -154 -223 6 -35 25 -38 25 -5 0 35 50 119 94 158 53 46
105 63 197 63 77 0 129 -23 194 -87 l48 -46 -6 -77 c-3 -42 -10 -85 -15 -96
-6 -10 -18 -39 -27 -64 -25 -69 -83 -131 -162 -171 -65 -33 -73 -34 -178 -34
-90 0 -116 3 -138 18 -15 10 -32 15 -37 12 -6 -3 -10 -1 -10 5 0 6 -16 25 -36
42 -78 69 -117 167 -115 290 2 116 22 177 73 225 72 67 348 109 468 71z m1137
-504 c-3 -3 -12 -4 -19 -1 -8 3 -5 6 6 6 11 1 17 -2 13 -5z m-174 -11 c-7 -2
-21 -2 -30 0 -10 3 -4 5 12 5 17 0 24 -2 18 -5z m105 0 c-10 -2 -26 -2 -35 0
-10 3 -2 5 17 5 19 0 27 -2 18 -5z m-83 -302 c-6 -5 -57 -23 -115 -41 -58 -18
-112 -35 -120 -38 -8 -3 -22 -6 -30 -7 -8 -2 -51 -11 -95 -20 -44 -9 -132 -23
-195 -30 -125 -13 -338 -20 -328 -10 3 3 93 15 199 26 191 19 375 50 414 69
19 9 232 57 265 59 8 1 10 -2 5 -8z m111 -53 c23 -37 26 -49 21 -102 -12 -138
-123 -278 -258 -326 -50 -17 -56 -17 -89 -2 -42 19 -53 19 -205 3 -108 -12
-122 -15 -152 -42 -49 -42 -74 -45 -153 -16 -76 28 -76 28 -136 84 -44 40 -94
141 -94 187 0 15 7 43 15 62 l15 36 27 -29 c46 -49 104 -82 202 -113 78 -25
107 -30 187 -29 52 0 96 5 100 10 3 5 15 9 28 9 12 0 26 3 30 7 4 4 24 9 44
10 36 2 202 79 202 94 0 4 9 10 19 14 29 9 119 105 139 147 9 21 20 38 24 38
4 0 20 -19 34 -42z m-253 -77 c27 -2 20 -25 -12 -39 -30 -13 -165 -44 -271
-61 -92 -16 -234 -22 -249 -12 -30 19 7 39 97 51 48 6 128 20 177 31 156 33
176 36 258 30z"/>
<path d="M2587 3184 c-3 -3 -45 -14 -94 -25 -163 -35 -215 -65 -183 -104 17
-20 59 -19 128 4 147 49 323 67 397 40 87 -32 100 2 21 55 -54 36 -56 36 -159
36 -57 0 -106 -3 -110 -6z"/>
<path d="M2570 2834 c-42 -18 -77 -49 -96 -86 -29 -56 -10 -174 33 -208 22
-17 27 -18 71 -3 26 9 52 19 57 23 12 9 123 43 148 46 28 2 32 12 30 71 -2 70
-32 116 -95 149 -54 27 -98 30 -148 8z m15 -109 c0 -27 -3 -30 -30 -30 -21 0
-31 5 -33 18 -6 33 6 49 35 45 24 -3 28 -8 28 -33z"/>
<path d="M1555 2693 c-86 -24 -145 -143 -111 -224 l15 -36 113 -5 c87 -5 117
-3 133 8 27 19 45 18 46 -3 0 -10 9 -1 20 22 51 105 -28 235 -145 241 -28 2
-60 0 -71 -3z m11 -98 c9 -36 -2 -55 -31 -55 -29 0 -40 19 -31 55 5 18 13 25
31 25 18 0 26 -7 31 -25z"/>
<path d="M2028 1563 c6 -2 18 -2 25 0 6 3 1 5 -13 5 -14 0 -19 -2 -12 -5z"/>
<path d="M3459 2777 c-36 -30 -66 -84 -74 -132 -6 -40 -6 -39 28 23 19 34 45
70 57 80 12 10 21 26 19 35 -4 15 -7 14 -30 -6z"/>
<path d="M4121 2044 c0 -11 3 -14 6 -6 3 7 2 16 -1 19 -3 4 -6 -2 -5 -13z"/>
<path d="M3125 1018 c14 -16 25 -36 25 -43 0 -8 8 -13 18 -13 29 3 256 -75
268 -91 10 -13 16 -13 40 -3 l28 13 -45 30 c-24 16 -52 29 -61 29 -22 0 -202
62 -256 88 l-42 20 25 -30z"/>
<path d="M4150 815 c-19 -14 -39 -25 -45 -25 -6 0 -27 -8 -48 -19 -20 -10 -34
-14 -31 -9 4 5 -7 3 -22 -5 -16 -7 -51 -20 -79 -26 -27 -7 -59 -16 -70 -21
-29 -11 -129 -31 -165 -32 -17 -1 -30 -6 -30 -13 0 -10 10 -11 38 -5 20 5 62
11 92 14 49 6 82 12 157 29 12 3 43 15 69 26 26 12 52 21 59 21 6 0 22 9 35
20 13 11 26 20 29 20 3 0 19 11 35 25 37 32 22 32 -24 0z"/>
<path d="M3192 774 c9 -9 21 -15 27 -13 6 2 -2 10 -17 17 -25 11 -25 11 -10
-4z"/>
<path d="M3317 711 c17 -11 49 -22 70 -26 l38 -5 -40 18 c-22 10 -53 22 -70
26 l-30 7 32 -20z"/>
<path d="M3600 660 c-13 -9 -13 -10 0 -9 8 0 24 4 35 9 l20 9 -20 0 c-11 0
-27 -4 -35 -9z"/>
</g>
</svg>
